<?xml version="1.0" encoding="iso-8859-1"?>
<!-- Generator: Adobe Illustrator 21.0.0, SVG Export Plug-In . SVG Version: 6.00 Build 0)  -->
<svg xmlns="http://www.w3.org/2000/svg" xmlns:xlink="http://www.w3.org/1999/xlink" version="1.1" id="Capa_1" x="0px" y="0px" viewBox="0 0 511.998 511.998" style="enable-background:new 0 0 511.998 511.998;" xml:space="preserve" width="512" height="512">
<g>
	<path style="fill:#A58260;" d="M426.457,265.6c-13.289-34.666-36.46-64.11-67.011-85.148   c-30.57-21.051-66.341-32.178-103.447-32.178c-37.106,0-72.877,11.127-103.447,32.178c-30.55,21.038-53.723,50.482-67.011,85.148   c-33.335,86.96-46.526,149.268-39.207,185.193c6.669,32.732,38.634,59.586,72.769,61.137c14.416,0.65,27.906-3.415,39.012-11.769   c12.35-9.289,21.444-23.427,27.029-42.022c0.876-2.919-0.1-6.078-2.472-7.993c-27.642-22.319-43.495-55.464-43.495-90.937v-14.953   c34.694-0.895,80.645-8.367,116.278-36.638c12.573-9.976,20.655-20.021,25.492-27.301c13.796,17.188,46.722,52.38,91.872,62.681   v16.211c0,35.473-15.853,68.618-43.495,90.937c-2.372,1.915-3.348,5.074-2.472,7.993c5.585,18.594,14.679,32.732,27.029,42.022   c10.335,7.773,22.732,11.837,36.02,11.837c0.992,0,1.991-0.023,2.992-0.068c34.136-1.55,66.1-28.405,72.769-61.137   C472.983,414.869,459.792,352.561,426.457,265.6z"/>
	<g>
		<path style="fill:#8C6B50;" d="M426.457,265.6c-13.289-34.666-36.46-64.11-67.011-85.148    c-30.57-21.051-66.341-32.178-103.447-32.178c-6.041,0-12.046,0.3-18,0.885c30.615,3.007,59.854,13.669,85.447,31.293    c30.551,21.038,53.723,50.482,67.011,85.148c33.335,86.961,46.525,149.269,39.206,185.193    c-5.644,27.701-29.407,51.188-57.269,58.694c5.578,1.656,11.448,2.511,17.507,2.511c0.992,0,1.991-0.023,2.992-0.068    c34.136-1.55,66.1-28.405,72.769-61.137C472.983,414.869,459.792,352.561,426.457,265.6z"/>
	</g>
	<path style="fill:#FFC89F;" d="M381.591,329.461c-56.261-9.673-94.901-66.428-95.281-66.995c-1.542-2.308-4.23-3.57-6.993-3.295   c-2.761,0.28-5.142,2.062-6.189,4.632c-0.267,0.655-28.022,65.55-141.451,65.55c-4.142,0-7.5,3.358-7.5,7.5v22.357   c0,72.686,59.135,131.821,131.821,131.821c72.686,0,131.821-59.135,131.821-131.821v-22.357   C387.82,333.201,385.19,330.08,381.591,329.461z"/>
	<path style="fill:#F7B081;" d="M381.591,329.461c-10.049-1.728-19.532-4.963-28.339-9.106v38.854   c0,66.841-50.011,122.206-114.576,130.682c5.67,0.747,11.452,1.139,17.323,1.139c72.686,0,131.821-59.135,131.821-131.821v-22.357   C387.82,333.201,385.19,330.08,381.591,329.461z"/>
	<g>
		<path style="fill:#464649;" d="M204.626,395.796c-7.921,0-14.366-6.444-14.366-14.366c0-7.921,6.444-14.366,14.366-14.366    c7.921,0,14.366,6.444,14.366,14.366C218.992,389.352,212.548,395.796,204.626,395.796z"/>
		<path style="fill:#464649;" d="M307.372,395.796c-7.921,0-14.366-6.444-14.366-14.366c0-7.921,6.444-14.366,14.366-14.366    c7.921,0,14.365,6.444,14.365,14.366C321.738,389.352,315.293,395.796,307.372,395.796z"/>
	</g>
	<path style="fill:#525256;" d="M373.908,110.233c-2.154-1.379-4.862-1.564-7.185-0.493l-110.724,51.084L145.275,109.74   c-2.323-1.072-5.031-0.885-7.184,0.493c-2.154,1.379-3.458,3.76-3.458,6.317v81.395c0,27.76,56.713,52.111,121.367,52.111   c64.653,0,121.366-24.351,121.366-52.111V116.55C377.366,113.993,376.062,111.612,373.908,110.233z"/>
	<path style="fill:#464649;" d="M373.908,110.233c-2.154-1.379-4.862-1.564-7.185-0.493l-23.858,11.007v112.812   c21.141-9.473,34.5-22.141,34.5-35.614V116.55C377.366,113.993,376.062,111.612,373.908,110.233z"/>
	<path style="fill:#464649;" d="M80.883,176.584c-4.142,0-7.5-3.358-7.5-7.5V88.292c0-4.142,3.358-7.5,7.5-7.5   c4.142,0,7.5,3.358,7.5,7.5v80.792C88.383,173.226,85.025,176.584,80.883,176.584z"/>
	<path style="fill:#78777E;" d="M434.258,81.482L259.141,0.69c-1.994-0.92-4.29-0.92-6.284,0L77.741,81.482   c-2.657,1.226-4.358,3.884-4.358,6.81c0,2.926,1.701,5.584,4.358,6.81l175.117,80.792c0.997,0.46,2.069,0.69,3.142,0.69   c1.073,0,2.145-0.23,3.142-0.69l175.116-80.792c2.657-1.226,4.358-3.884,4.358-6.81C438.616,85.366,436.914,82.708,434.258,81.482z   "/>
</g>















</svg>
